<?xml version="1.0" encoding="UTF-8" standalone="no"?>
<!DOCTYPE svg PUBLIC "-//W3C//DTD SVG 1.1//EN" "http://www.w3.org/Graphics/SVG/1.1/DTD/svg11.dtd">
<svg width="100%" height="100%" viewBox="0 0 889 187" version="1.1" xmlns="http://www.w3.org/2000/svg" xmlns:xlink="http://www.w3.org/1999/xlink" xml:space="preserve" xmlns:serif="http://www.serif.com/" style="fill-rule:evenodd;clip-rule:evenodd;stroke-linejoin:round;stroke-miterlimit:2;">
    <g id="Logo" transform="matrix(1,0,0,1,-257.527,-14.3571)">
        <g>
            <g>
                <g transform="matrix(1,0,0,1,257.527,14.3571)">
                    <path d="M64.355,0C64.355,0 58.429,23.207 41.32,51.263C26.402,75.729 -0,104.008 -0,122.171C-0,157.689 28.836,186.526 64.355,186.526C99.873,186.526 128.71,157.689 128.71,122.171C128.71,103.42 101.565,76.287 86.113,51.263C69.434,24.251 64.355,0 64.355,0ZM70.875,155.012L70.875,157.483L57.036,157.483C57.017,156.864 57.117,156.269 57.336,155.698C57.688,154.755 58.253,153.827 59.028,152.913C59.804,151.999 60.925,150.942 62.392,149.743C64.667,147.876 66.205,146.398 67.005,145.308C67.804,144.218 68.204,143.187 68.204,142.216C68.204,141.198 67.84,140.338 67.112,139.639C66.383,138.939 65.434,138.589 64.263,138.589C63.025,138.589 62.035,138.96 61.292,139.703C60.549,140.445 60.173,141.474 60.164,142.788L57.522,142.516C57.703,140.545 58.383,139.044 59.564,138.011C60.745,136.978 62.33,136.461 64.32,136.461C66.329,136.461 67.919,137.018 69.09,138.132C70.261,139.246 70.846,140.626 70.846,142.273C70.846,143.111 70.675,143.935 70.332,144.744C69.989,145.553 69.42,146.405 68.625,147.3C67.83,148.195 66.509,149.424 64.662,150.985C63.12,152.28 62.13,153.158 61.692,153.62C61.254,154.082 60.892,154.546 60.607,155.012L70.875,155.012ZM73.293,115.41C73.293,107.963 75.293,102.133 79.291,97.92C83.29,93.708 88.452,91.601 94.776,91.601C98.918,91.601 102.651,92.591 105.977,94.57C109.302,96.548 111.837,99.308 113.582,102.848C115.326,106.387 116.198,110.401 116.198,114.89C116.198,119.439 115.28,123.509 113.444,127.1C111.608,130.691 109.006,133.409 105.64,135.256C102.274,137.102 98.642,138.025 94.746,138.025C90.523,138.025 86.748,137.005 83.423,134.965C80.097,132.925 77.578,130.14 75.864,126.61C74.15,123.081 73.293,119.347 73.293,115.41ZM20.282,136.633L20.282,91.77L26.219,91.77L26.219,110.193L49.539,110.193L49.539,91.77L55.475,91.77L55.475,136.633L49.539,136.633L49.539,115.487L26.219,115.487L26.219,136.633L20.282,136.633ZM79.414,115.502C79.414,120.908 80.867,125.167 83.775,128.278C86.682,131.39 90.329,132.945 94.715,132.945C99.183,132.945 102.86,131.374 105.747,128.232C108.634,125.09 110.078,120.633 110.078,114.859C110.078,111.207 109.46,108.019 108.226,105.296C106.992,102.572 105.186,100.461 102.809,98.961C100.433,97.461 97.765,96.712 94.807,96.712C90.604,96.712 86.988,98.155 83.958,101.042C80.929,103.929 79.414,108.749 79.414,115.502Z" style="fill:white;"/>
                </g>
                <g transform="matrix(1,0,0,1,179.285,-10.38)">
                    <path d="M142.597,203C142.597,203 162.78,186.895 171.494,177.698C184.663,163.798 195,141 195,141C195,141 195.885,157.881 192.333,168.456C190.055,175.238 183.186,181.895 179.903,185.477C176.96,188.688 170.232,194.879 164.13,197.641C153.437,202.48 142.597,203 142.597,203Z" style="fill:rgb(51,51,51);fill-opacity:0.22;"/>
                </g>
                <g transform="matrix(1,0,0,1,257.527,14.3571)">
                    <path d="M20.282,111.668L20.282,136.633L26.219,136.633L26.219,115.487L42.223,115.487C37.76,121.058 33.248,127.782 30.355,133.124C25.812,141.51 20.64,148.961 20.64,148.961C20.64,148.961 14.871,134.424 15,129.171C15.18,121.814 17.087,116.734 20.282,111.668ZM26.219,103.498C30.415,98.117 35.574,91.687 41.32,82.263C58.429,54.207 64.355,31 64.355,31C64.355,31 74.858,52.233 68.113,83.263C66.77,89.441 61.691,94.968 55.475,101.264L55.475,91.77L49.539,91.77L49.539,107.287C48.625,108.233 47.706,109.2 46.787,110.193L26.219,110.193L26.219,103.498Z" style="fill:rgb(136,136,136);fill-opacity:0.06;"/>
                </g>
            </g>
        </g>
        <g transform="matrix(1,0,0,1,120.791,-30.0095)">
            <g transform="matrix(62.6741,0,0,62.6741,284,181)">
                <path d="M0.073,-0L0.073,-0.716L0.218,-0.716L0.218,-0.434L0.501,-0.434L0.501,-0.716L0.646,-0.716L0.646,-0L0.501,-0L0.501,-0.313L0.218,-0.313L0.218,-0L0.073,-0Z" style="fill:white;fill-rule:nonzero;"/>
            </g>
            <g transform="matrix(62.6741,0,0,62.6741,329.261,181)">
                <path d="M0.506,-0.127L0.506,-0L0.025,-0C0.03,-0.048 0.046,-0.094 0.072,-0.137C0.098,-0.18 0.149,-0.237 0.226,-0.309C0.288,-0.366 0.326,-0.405 0.34,-0.426C0.359,-0.454 0.368,-0.482 0.368,-0.51C0.368,-0.54 0.36,-0.564 0.344,-0.58C0.327,-0.597 0.304,-0.605 0.275,-0.605C0.247,-0.605 0.224,-0.596 0.207,-0.579C0.19,-0.562 0.18,-0.533 0.178,-0.493L0.041,-0.507C0.049,-0.582 0.075,-0.637 0.118,-0.669C0.161,-0.702 0.214,-0.719 0.279,-0.719C0.349,-0.719 0.405,-0.7 0.445,-0.662C0.486,-0.624 0.506,-0.576 0.506,-0.52C0.506,-0.487 0.5,-0.457 0.489,-0.427C0.477,-0.398 0.459,-0.368 0.434,-0.336C0.417,-0.315 0.387,-0.284 0.344,-0.245C0.3,-0.205 0.273,-0.179 0.261,-0.166C0.25,-0.153 0.241,-0.14 0.233,-0.127L0.506,-0.127Z" style="fill:white;fill-rule:nonzero;"/>
            </g>
            <g transform="matrix(62.6741,0,0,62.6741,364.118,181)">
                <path d="M0.043,-0.354C0.043,-0.426 0.054,-0.488 0.076,-0.537C0.092,-0.574 0.115,-0.606 0.143,-0.635C0.171,-0.664 0.202,-0.686 0.235,-0.7C0.28,-0.719 0.331,-0.728 0.39,-0.728C0.495,-0.728 0.58,-0.695 0.643,-0.63C0.706,-0.564 0.738,-0.473 0.738,-0.357C0.738,-0.241 0.706,-0.151 0.644,-0.086C0.581,-0.02 0.497,0.012 0.392,0.012C0.285,0.012 0.201,-0.02 0.138,-0.085C0.075,-0.15 0.043,-0.24 0.043,-0.354ZM0.192,-0.358C0.192,-0.277 0.211,-0.216 0.249,-0.174C0.286,-0.132 0.333,-0.111 0.391,-0.111C0.449,-0.111 0.496,-0.132 0.533,-0.174C0.57,-0.215 0.588,-0.277 0.588,-0.36C0.588,-0.442 0.57,-0.504 0.534,-0.544C0.498,-0.584 0.451,-0.604 0.391,-0.604C0.332,-0.604 0.284,-0.584 0.247,-0.543C0.211,-0.502 0.192,-0.441 0.192,-0.358Z" style="fill:white;fill-rule:nonzero;"/>
            </g>
            <g transform="matrix(62.6741,0,0,62.6741,430.28,181)">
                <path d="M0.073,-0L0.073,-0.716L0.305,-0.716C0.393,-0.716 0.45,-0.712 0.477,-0.705C0.518,-0.694 0.552,-0.671 0.58,-0.635C0.607,-0.599 0.621,-0.553 0.621,-0.496C0.621,-0.452 0.613,-0.415 0.597,-0.385C0.581,-0.355 0.561,-0.331 0.536,-0.314C0.512,-0.297 0.487,-0.286 0.461,-0.28C0.427,-0.273 0.377,-0.27 0.312,-0.27L0.217,-0.27L0.217,-0L0.073,-0ZM0.217,-0.595L0.217,-0.392L0.296,-0.392C0.353,-0.392 0.391,-0.395 0.411,-0.403C0.43,-0.41 0.445,-0.422 0.456,-0.438C0.467,-0.454 0.472,-0.472 0.472,-0.494C0.472,-0.52 0.465,-0.541 0.449,-0.558C0.434,-0.575 0.415,-0.586 0.391,-0.59C0.374,-0.593 0.339,-0.595 0.287,-0.595L0.217,-0.595Z" style="fill:white;fill-rule:nonzero;"/>
            </g>
            <g transform="matrix(62.6741,0,0,62.6741,472.083,181)">
                <rect x="0.072" y="-0.716" width="0.137" height="0.716" style="fill:white;fill-rule:nonzero;"/>
            </g>
            <g transform="matrix(62.6741,0,0,62.6741,489.496,181)">
                <path d="M0.413,-0L0.413,-0.078C0.394,-0.05 0.369,-0.028 0.339,-0.012C0.308,0.004 0.275,0.012 0.241,0.012C0.206,0.012 0.175,0.004 0.147,-0.011C0.12,-0.027 0.1,-0.048 0.087,-0.076C0.075,-0.103 0.069,-0.142 0.069,-0.19L0.069,-0.519L0.206,-0.519L0.206,-0.28C0.206,-0.207 0.209,-0.163 0.214,-0.146C0.219,-0.13 0.228,-0.117 0.241,-0.107C0.255,-0.098 0.271,-0.093 0.292,-0.093C0.315,-0.093 0.336,-0.099 0.355,-0.112C0.374,-0.125 0.386,-0.141 0.393,-0.16C0.4,-0.179 0.403,-0.226 0.403,-0.3L0.403,-0.519L0.541,-0.519L0.541,-0L0.413,-0Z" style="fill:white;fill-rule:nonzero;"/>
            </g>
            <g transform="matrix(62.6741,0,0,62.6741,527.78,181)">
                <path d="M0.062,-0.519L0.188,-0.519L0.188,-0.448C0.233,-0.503 0.287,-0.53 0.35,-0.53C0.383,-0.53 0.412,-0.523 0.436,-0.51C0.46,-0.496 0.48,-0.475 0.496,-0.448C0.519,-0.475 0.543,-0.496 0.57,-0.51C0.596,-0.523 0.624,-0.53 0.654,-0.53C0.692,-0.53 0.725,-0.523 0.751,-0.507C0.777,-0.492 0.797,-0.469 0.81,-0.439C0.819,-0.417 0.824,-0.381 0.824,-0.332L0.824,-0L0.687,-0L0.687,-0.296C0.687,-0.348 0.682,-0.381 0.673,-0.396C0.66,-0.416 0.641,-0.425 0.614,-0.425C0.595,-0.425 0.577,-0.419 0.56,-0.408C0.543,-0.396 0.531,-0.379 0.523,-0.356C0.516,-0.334 0.512,-0.298 0.512,-0.249L0.512,-0L0.375,-0L0.375,-0.284C0.375,-0.335 0.373,-0.367 0.368,-0.382C0.363,-0.396 0.355,-0.407 0.345,-0.415C0.335,-0.422 0.321,-0.425 0.303,-0.425C0.282,-0.425 0.263,-0.42 0.246,-0.408C0.229,-0.397 0.217,-0.38 0.21,-0.359C0.202,-0.337 0.199,-0.302 0.199,-0.252L0.199,-0L0.062,-0L0.062,-0.519Z" style="fill:white;fill-rule:nonzero;"/>
            </g>
            <g transform="matrix(62.6741,0,0,62.6741,583.508,181)">
                <path d="M0.066,-0L0.066,-0.716L0.203,-0.716L0.203,-0.458C0.245,-0.506 0.296,-0.53 0.354,-0.53C0.417,-0.53 0.469,-0.507 0.51,-0.462C0.552,-0.416 0.572,-0.35 0.572,-0.265C0.572,-0.176 0.551,-0.108 0.509,-0.06C0.467,-0.012 0.416,0.012 0.355,0.012C0.326,0.012 0.297,0.004 0.268,-0.01C0.239,-0.025 0.214,-0.047 0.193,-0.076L0.193,-0L0.066,-0ZM0.202,-0.271C0.202,-0.217 0.211,-0.177 0.228,-0.151C0.251,-0.115 0.283,-0.097 0.322,-0.097C0.353,-0.097 0.378,-0.11 0.4,-0.135C0.421,-0.161 0.432,-0.202 0.432,-0.258C0.432,-0.317 0.421,-0.36 0.399,-0.386C0.378,-0.412 0.35,-0.425 0.317,-0.425C0.284,-0.425 0.257,-0.413 0.235,-0.387C0.213,-0.361 0.202,-0.323 0.202,-0.271Z" style="fill:white;fill-rule:nonzero;"/>
            </g>
            <g transform="matrix(62.6741,0,0,62.6741,621.791,181)">
                <path d="M0.072,-0.589L0.072,-0.716L0.209,-0.716L0.209,-0.589L0.072,-0.589ZM0.072,-0L0.072,-0.519L0.209,-0.519L0.209,-0L0.072,-0Z" style="fill:white;fill-rule:nonzero;"/>
            </g>
            <g transform="matrix(62.6741,0,0,62.6741,639.204,181)">
                <path d="M0.543,-0L0.406,-0L0.406,-0.265C0.406,-0.321 0.403,-0.357 0.397,-0.373C0.392,-0.39 0.382,-0.403 0.369,-0.412C0.356,-0.421 0.34,-0.425 0.321,-0.425C0.298,-0.425 0.276,-0.419 0.257,-0.406C0.238,-0.393 0.226,-0.375 0.219,-0.354C0.212,-0.333 0.208,-0.293 0.208,-0.235L0.208,-0L0.071,-0L0.071,-0.519L0.198,-0.519L0.198,-0.442C0.243,-0.501 0.3,-0.53 0.369,-0.53C0.399,-0.53 0.427,-0.525 0.452,-0.514C0.477,-0.503 0.496,-0.489 0.509,-0.472C0.522,-0.455 0.531,-0.436 0.536,-0.415C0.541,-0.393 0.543,-0.362 0.543,-0.322L0.543,-0Z" style="fill:white;fill-rule:nonzero;"/>
            </g>
            <g transform="matrix(62.6741,0,0,62.6741,677.488,181)">
                <path d="M0.059,0.034L0.216,0.053C0.218,0.071 0.224,0.084 0.234,0.091C0.247,0.101 0.267,0.105 0.295,0.105C0.331,0.105 0.358,0.1 0.376,0.089C0.388,0.082 0.397,0.071 0.403,0.055C0.408,0.043 0.41,0.022 0.41,-0.008L0.41,-0.084C0.369,-0.028 0.317,-0 0.254,-0C0.185,-0 0.13,-0.029 0.089,-0.088C0.057,-0.135 0.041,-0.193 0.041,-0.262C0.041,-0.349 0.062,-0.416 0.104,-0.461C0.146,-0.507 0.198,-0.53 0.26,-0.53C0.324,-0.53 0.377,-0.502 0.418,-0.446L0.418,-0.519L0.547,-0.519L0.547,-0.053C0.547,0.008 0.542,0.054 0.532,0.084C0.522,0.114 0.507,0.138 0.489,0.155C0.471,0.173 0.447,0.186 0.416,0.196C0.386,0.206 0.347,0.21 0.301,0.21C0.213,0.21 0.151,0.195 0.114,0.165C0.077,0.135 0.059,0.097 0.059,0.051C0.059,0.046 0.059,0.041 0.059,0.034ZM0.182,-0.27C0.182,-0.215 0.192,-0.175 0.214,-0.149C0.235,-0.124 0.261,-0.111 0.292,-0.111C0.326,-0.111 0.354,-0.124 0.377,-0.15C0.401,-0.176 0.412,-0.215 0.412,-0.267C0.412,-0.32 0.401,-0.36 0.379,-0.386C0.357,-0.412 0.329,-0.425 0.295,-0.425C0.262,-0.425 0.235,-0.413 0.214,-0.387C0.192,-0.361 0.182,-0.322 0.182,-0.27Z" style="fill:white;fill-rule:nonzero;"/>
            </g>
            <g transform="matrix(62.6741,0,0,62.6741,733.185,181)">
                <path d="M0.706,-0.087L0.623,0.019C0.582,-0.001 0.543,-0.029 0.506,-0.063C0.477,-0.037 0.446,-0.018 0.414,-0.006C0.381,0.007 0.342,0.013 0.297,0.013C0.208,0.013 0.141,-0.012 0.096,-0.063C0.061,-0.101 0.044,-0.146 0.044,-0.196C0.044,-0.242 0.058,-0.283 0.085,-0.32C0.112,-0.357 0.153,-0.389 0.208,-0.416C0.183,-0.444 0.165,-0.472 0.152,-0.498C0.14,-0.524 0.134,-0.549 0.134,-0.573C0.134,-0.616 0.151,-0.653 0.186,-0.683C0.22,-0.713 0.27,-0.728 0.334,-0.728C0.396,-0.728 0.444,-0.712 0.479,-0.681C0.514,-0.649 0.531,-0.611 0.531,-0.565C0.531,-0.536 0.523,-0.508 0.505,-0.482C0.488,-0.456 0.453,-0.427 0.401,-0.394L0.5,-0.263C0.512,-0.284 0.522,-0.311 0.531,-0.344L0.655,-0.316C0.642,-0.272 0.632,-0.24 0.623,-0.219C0.613,-0.199 0.604,-0.182 0.593,-0.168C0.609,-0.154 0.628,-0.138 0.653,-0.121C0.677,-0.104 0.695,-0.093 0.706,-0.087ZM0.333,-0.477L0.37,-0.505C0.397,-0.526 0.411,-0.547 0.411,-0.568C0.411,-0.585 0.404,-0.6 0.391,-0.613C0.378,-0.625 0.36,-0.631 0.337,-0.631C0.316,-0.631 0.299,-0.626 0.286,-0.615C0.274,-0.604 0.268,-0.591 0.268,-0.577C0.268,-0.56 0.278,-0.54 0.299,-0.516L0.333,-0.477ZM0.279,-0.328C0.247,-0.312 0.224,-0.292 0.208,-0.27C0.192,-0.248 0.185,-0.225 0.185,-0.201C0.185,-0.172 0.194,-0.147 0.214,-0.129C0.233,-0.11 0.259,-0.101 0.292,-0.101C0.313,-0.101 0.334,-0.105 0.354,-0.113C0.373,-0.122 0.395,-0.136 0.418,-0.155L0.279,-0.328Z" style="fill:white;fill-rule:nonzero;"/>
            </g>
            <g transform="matrix(62.6741,0,0,62.6741,795.859,181)">
                <path d="M0.406,-0.263L0.406,-0.384L0.717,-0.384L0.717,-0.099C0.687,-0.069 0.643,-0.044 0.586,-0.021C0.528,0.001 0.47,0.012 0.411,0.012C0.336,0.012 0.271,-0.003 0.215,-0.035C0.16,-0.066 0.118,-0.111 0.09,-0.17C0.062,-0.228 0.048,-0.292 0.048,-0.36C0.048,-0.435 0.063,-0.501 0.095,-0.559C0.126,-0.617 0.172,-0.661 0.232,-0.692C0.278,-0.716 0.335,-0.728 0.403,-0.728C0.492,-0.728 0.562,-0.709 0.612,-0.672C0.662,-0.635 0.694,-0.583 0.708,-0.518L0.564,-0.491C0.554,-0.526 0.535,-0.554 0.508,-0.574C0.48,-0.594 0.445,-0.604 0.403,-0.604C0.34,-0.604 0.29,-0.584 0.253,-0.544C0.215,-0.504 0.197,-0.445 0.197,-0.366C0.197,-0.281 0.216,-0.218 0.253,-0.175C0.291,-0.133 0.341,-0.111 0.402,-0.111C0.432,-0.111 0.462,-0.117 0.493,-0.129C0.523,-0.141 0.549,-0.155 0.571,-0.172L0.571,-0.263L0.406,-0.263Z" style="fill:white;fill-rule:nonzero;"/>
            </g>
            <g transform="matrix(62.6741,0,0,62.6741,844.609,181)">
                <path d="M0.174,-0.36L0.05,-0.383C0.064,-0.433 0.088,-0.47 0.122,-0.494C0.156,-0.518 0.207,-0.53 0.274,-0.53C0.336,-0.53 0.381,-0.523 0.411,-0.509C0.441,-0.494 0.462,-0.476 0.474,-0.453C0.487,-0.431 0.493,-0.39 0.493,-0.331L0.491,-0.17C0.491,-0.125 0.493,-0.091 0.498,-0.07C0.502,-0.048 0.51,-0.025 0.522,-0L0.387,-0C0.383,-0.009 0.379,-0.023 0.374,-0.041C0.371,-0.049 0.37,-0.054 0.369,-0.057C0.345,-0.034 0.32,-0.017 0.293,-0.005C0.267,0.006 0.238,0.012 0.208,0.012C0.155,0.012 0.113,-0.003 0.082,-0.032C0.051,-0.061 0.036,-0.097 0.036,-0.142C0.036,-0.171 0.043,-0.197 0.057,-0.22C0.071,-0.243 0.09,-0.26 0.115,-0.273C0.141,-0.285 0.177,-0.296 0.225,-0.305C0.289,-0.317 0.333,-0.328 0.358,-0.338L0.358,-0.352C0.358,-0.378 0.351,-0.397 0.338,-0.408C0.325,-0.42 0.301,-0.425 0.265,-0.425C0.24,-0.425 0.221,-0.42 0.208,-0.411C0.194,-0.401 0.183,-0.384 0.174,-0.36ZM0.358,-0.249C0.34,-0.243 0.313,-0.236 0.274,-0.228C0.236,-0.22 0.211,-0.212 0.2,-0.204C0.182,-0.191 0.173,-0.175 0.173,-0.156C0.173,-0.137 0.18,-0.12 0.194,-0.106C0.209,-0.092 0.227,-0.085 0.249,-0.085C0.274,-0.085 0.297,-0.093 0.32,-0.109C0.336,-0.122 0.347,-0.137 0.353,-0.155C0.356,-0.167 0.358,-0.189 0.358,-0.222L0.358,-0.249Z" style="fill:white;fill-rule:nonzero;"/>
            </g>
            <g transform="matrix(62.6741,0,0,62.6741,879.465,181)">
                <path d="M0.023,-0.148L0.161,-0.169C0.167,-0.142 0.179,-0.122 0.197,-0.108C0.215,-0.094 0.24,-0.087 0.272,-0.087C0.307,-0.087 0.334,-0.094 0.352,-0.107C0.364,-0.116 0.37,-0.128 0.37,-0.144C0.37,-0.154 0.367,-0.163 0.36,-0.169C0.354,-0.176 0.338,-0.182 0.314,-0.188C0.204,-0.212 0.134,-0.234 0.104,-0.254C0.063,-0.282 0.042,-0.321 0.042,-0.371C0.042,-0.416 0.06,-0.454 0.096,-0.484C0.131,-0.515 0.186,-0.53 0.261,-0.53C0.332,-0.53 0.384,-0.519 0.419,-0.496C0.453,-0.472 0.477,-0.438 0.49,-0.393L0.361,-0.369C0.355,-0.389 0.345,-0.405 0.329,-0.416C0.314,-0.426 0.292,-0.432 0.263,-0.432C0.227,-0.432 0.201,-0.427 0.186,-0.417C0.175,-0.409 0.17,-0.4 0.17,-0.389C0.17,-0.379 0.174,-0.371 0.184,-0.364C0.196,-0.355 0.239,-0.342 0.312,-0.325C0.385,-0.309 0.436,-0.288 0.465,-0.264C0.493,-0.24 0.508,-0.206 0.508,-0.162C0.508,-0.115 0.488,-0.074 0.448,-0.04C0.409,-0.005 0.35,0.012 0.272,0.012C0.201,0.012 0.145,-0.003 0.104,-0.031C0.063,-0.06 0.036,-0.099 0.023,-0.148Z" style="fill:white;fill-rule:nonzero;"/>
            </g>
            <g transform="matrix(62.6741,0,0,62.6741,931.734,181)">
                <path d="M0.077,-0L0.077,-0.71L0.221,-0.71L0.221,-0.121L0.581,-0.121L0.581,-0L0.077,-0Z" style="fill:white;fill-rule:nonzero;"/>
            </g>
            <g transform="matrix(62.6741,0,0,62.6741,970.018,181)">
                <path d="M0.31,-0.519L0.31,-0.409L0.216,-0.409L0.216,-0.2C0.216,-0.158 0.217,-0.133 0.219,-0.126C0.22,-0.119 0.224,-0.113 0.231,-0.109C0.237,-0.104 0.245,-0.102 0.254,-0.102C0.267,-0.102 0.285,-0.106 0.309,-0.115L0.321,-0.009C0.289,0.005 0.253,0.012 0.212,0.012C0.188,0.012 0.165,0.008 0.146,-0.001C0.126,-0.009 0.111,-0.02 0.102,-0.033C0.093,-0.046 0.086,-0.064 0.083,-0.086C0.08,-0.102 0.078,-0.135 0.078,-0.183L0.078,-0.409L0.015,-0.409L0.015,-0.519L0.078,-0.519L0.078,-0.622L0.216,-0.702L0.216,-0.519L0.31,-0.519Z" style="fill:white;fill-rule:nonzero;"/>
            </g>
            <g transform="matrix(62.6741,0,0,62.6741,990.889,181)">
                <path d="M0.547,-0L0.42,-0L0.42,-0.076C0.399,-0.047 0.374,-0.024 0.345,-0.01C0.316,0.004 0.287,0.012 0.258,0.012C0.198,0.012 0.147,-0.012 0.105,-0.06C0.062,-0.108 0.041,-0.175 0.041,-0.261C0.041,-0.349 0.062,-0.416 0.103,-0.462C0.144,-0.507 0.197,-0.53 0.26,-0.53C0.318,-0.53 0.368,-0.506 0.41,-0.458L0.41,-0.716L0.547,-0.716L0.547,-0ZM0.181,-0.271C0.181,-0.215 0.189,-0.175 0.204,-0.15C0.226,-0.115 0.257,-0.097 0.297,-0.097C0.328,-0.097 0.355,-0.11 0.377,-0.137C0.4,-0.164 0.411,-0.204 0.411,-0.257C0.411,-0.317 0.4,-0.36 0.378,-0.386C0.357,-0.412 0.329,-0.425 0.296,-0.425C0.263,-0.425 0.236,-0.412 0.214,-0.386C0.192,-0.361 0.181,-0.322 0.181,-0.271Z" style="fill:white;fill-rule:nonzero;"/>
            </g>
        </g>
    </g>
</svg>
